<?xml version="1.0" standalone="no"?>
<!DOCTYPE svg PUBLIC "-//W3C//DTD SVG 20010904//EN"
 "http://www.w3.org/TR/2001/REC-SVG-20010904/DTD/svg10.dtd">
<svg version="1.0" xmlns="http://www.w3.org/2000/svg"
 width="70px" height="70px" viewBox="0 0 512.000000 512.000000"
 preserveAspectRatio="xMidYMid meet">
<metadata>
Created by potrace 1.16, written by Peter Selinger 2001-2019
</metadata>
<g transform="translate(0.000000,512.000000) scale(0.100000,-0.100000)"
fill="#DE8006" stroke="none">
<path d="M2345 5113 c-791 -102 -1416 -713 -1531 -1497 -25 -169 -15 -488 20
-654 35 -163 85 -311 156 -457 32 -66 368 -646 748 -1290 545 -925 696 -1175
723 -1193 29 -20 43 -23 97 -20 53 3 67 8 92 33 35 36 1398 2311 1468 2452 94
187 155 382 186 594 21 139 21 409 1 545 -42 281 -158 556 -333 794 -72 96
-256 280 -352 351 -237 176 -515 292 -792 333 -97 15 -397 20 -483 9z m543
-337 c598 -151 1026 -621 1113 -1224 17 -122 7 -391 -20 -516 -32 -151 -85
-298 -155 -431 -56 -106 -1257 -2120 -1274 -2137 -9 -8 -1220 2048 -1284 2179
-102 211 -147 400 -155 650 -8 243 16 390 98 598 142 364 450 672 814 814 209
82 324 101 570 97 164 -4 204 -8 293 -30z"/>
<path d="M1981 4229 c-356 -59 -544 -569 -353 -959 45 -92 141 -197 217 -236
l55 -29 0 -445 c0 -442 0 -446 23 -490 28 -56 72 -82 138 -82 57 0 90 18 127
72 l22 33 0 456 1 456 47 23 c113 55 216 183 267 332 24 72 29 106 33 216 4
110 1 144 -17 215 -31 125 -82 220 -160 299 -75 76 -144 115 -240 136 -74 15
-83 15 -160 3z m155 -334 c63 -41 114 -169 114 -286 0 -117 -29 -198 -94 -265
-46 -47 -57 -54 -92 -54 -115 0 -200 137 -198 320 1 114 24 185 85 254 58 66
117 76 185 31z"/>
<path d="M2890 4222 c-19 -9 -45 -32 -57 -51 l-23 -34 0 -1017 0 -1017 23 -34
c62 -93 191 -91 261 4 20 27 21 42 24 363 l3 334 127 0 c139 0 188 14 245 68
63 59 72 93 70 247 -2 239 -52 507 -128 694 -81 197 -208 351 -348 421 -89 45
-140 51 -197 22z m305 -715 c23 -88 48 -246 59 -369 l5 -58 -70 0 -69 0 0 318
1 317 25 -58 c14 -32 36 -100 49 -150z"/>
</g>
</svg>
